<svg width="517" height="290" viewBox="0 0 517 290" fill="none" xmlns="http://www.w3.org/2000/svg">
<g clip-path="url(#clip0_9303_1127)">
<rect width="516" height="290" transform="translate(0.5)" fill="#E6F7FE"/>
<rect x="97" y="185" width="289" height="134" stroke="#151515" stroke-width="2" stroke-linecap="round" stroke-linejoin="round" stroke-dasharray="6 6"/>
<rect x="-10" y="-9" width="214" height="274" stroke="#151515" stroke-width="2" stroke-linecap="round" stroke-linejoin="round" stroke-dasharray="6 6"/>
<rect x="447" y="-2" width="144" height="105" fill="#59B5F8" stroke="#151515" stroke-width="2" stroke-linecap="round" stroke-linejoin="round"/>
<rect x="-106" y="265" width="203" height="135" fill="#59B5F8" stroke="#151515" stroke-width="2" stroke-linecap="round" stroke-linejoin="round"/>
<rect x="54" y="31" width="332" height="80" stroke="#151515" stroke-width="2" stroke-linecap="round" stroke-linejoin="round" stroke-dasharray="6 6"/>
<rect x="447" y="-59" width="279" height="292" stroke="#151515" stroke-width="2" stroke-linecap="round" stroke-linejoin="round" stroke-dasharray="6 6"/>
<path d="M210.284 119.299L318.987 90.168L289.856 198.871L181.152 228.003L210.284 119.299Z" fill="#151515" stroke="#151515" stroke-width="2" stroke-linejoin="round"/>
<path d="M194.131 103.144L302.835 74.0127L273.703 182.716L165 211.847L194.131 103.144Z" fill="#59B5F8" stroke="#151515" stroke-width="2" stroke-linejoin="round"/>
<path d="M165.004 211.843L273.707 182.712L289.86 198.864L181.156 227.996L165.004 211.843Z" fill="#151515" stroke="#151515" stroke-width="2" stroke-linejoin="round"/>
<path d="M273.719 182.703L302.85 74L319.003 90.1525L289.871 198.856L273.719 182.703Z" fill="#87D9FD" stroke="#151515" stroke-width="2" stroke-linejoin="round"/>
<path d="M423.4 27.1216C406.471 22.8431 382.897 29.5403 370.746 42.0804C364.663 48.3584 362.596 54.9105 364.173 60.4257L364.172 60.426L358.281 39.688C357.128 35.6311 359.63 30.452 365.718 24.2086C377.878 11.7395 401.435 5.04713 418.334 9.26071C426.796 11.3705 431.592 14.4762 432.745 18.5331L438.59 39.1084C436.976 33.6625 431.792 29.2426 423.4 27.1216Z" fill="#B382F2" stroke="#151515" stroke-width="2" stroke-linejoin="round"/>
<path d="M408.129 25.9871C394.245 27.016 379.514 33.0247 370.739 42.0803C364.655 48.359 362.588 54.9121 364.166 60.4277L364.164 60.4283L358.273 39.6903C357.12 35.6334 359.622 30.4543 365.711 24.2109C374.488 15.2103 389.203 9.21959 403.067 8.16797L408.129 25.9871Z" fill="#151515" stroke="#151515" stroke-width="2" stroke-linejoin="round"/>
<path d="M370.622 41.6492C382.73 28.956 406.304 22.2587 423.276 26.6904C440.249 31.1221 444.193 45.0045 432.085 57.6977C419.978 70.3909 396.404 77.0882 379.431 72.6565C362.459 68.2248 358.515 54.3424 370.622 41.6492Z" fill="#8E44EC" stroke="#151515" stroke-width="2" stroke-linejoin="round"/>
<path d="M75.1959 27.4512L110.706 78.7666L48.5101 83.8568L13 32.5415L75.1959 27.4512Z" fill="#151515" stroke="#151515" stroke-width="2" stroke-linejoin="round"/>
<path d="M80.6138 16L116.124 67.3154L53.9281 72.4057L18.418 21.0903L80.6138 16Z" fill="#3BBB96" stroke="#151515" stroke-width="2" stroke-linejoin="round"/>
<path d="M18.4209 21.0918L53.931 72.4072L48.514 83.8571L13.0039 32.5417L18.4209 21.0918Z" fill="#151515" stroke="#151515" stroke-width="2" stroke-linejoin="round"/>
<path d="M53.9365 72.4086L116.132 67.3184L110.715 78.7683L48.5195 83.8586L53.9365 72.4086Z" fill="#75DCC0" stroke="#151515" stroke-width="2" stroke-linecap="round" stroke-linejoin="round"/>
<path d="M443.699 260.549C421.863 268.773 389.556 263.421 371.538 248.596C362.604 241.245 358.861 232.946 360.019 225.443L360.017 225.442L358.127 236.855C357.206 242.415 361.305 248.916 370.328 256.291C388.346 271.021 420.63 276.369 442.436 268.236C453.355 264.163 459.257 259.319 460.178 253.759L462.068 242.347C460.745 249.822 454.525 256.471 443.699 260.549Z" fill="#75DCC0" stroke="#151515" stroke-width="2" stroke-linejoin="round"/>
<path d="M423.608 264.346C405.017 265.066 384.554 259.3 371.543 248.594C362.609 241.243 358.866 232.944 360.024 225.441L360.021 225.44L358.131 236.853C357.21 242.413 361.309 248.914 370.332 256.289C383.338 266.922 403.777 272.666 422.343 271.98L423.608 264.346Z" fill="#151515" stroke="#151515" stroke-width="2" stroke-linejoin="round"/>
<path fill-rule="evenodd" clip-rule="evenodd" d="M443.693 260.547C421.857 268.771 389.55 263.42 371.532 248.594C353.514 233.769 356.61 215.083 378.445 206.859C400.281 198.635 432.589 203.987 450.606 218.812C468.624 233.638 465.529 252.323 443.693 260.547ZM432.961 251.853C418.284 257.443 396.585 253.849 384.494 243.825C372.404 233.801 374.501 221.143 389.178 215.553C403.854 209.962 425.553 213.557 437.644 223.581C449.734 233.605 447.638 246.263 432.961 251.853Z" fill="#3BBB96" stroke="#151515" stroke-width="2" stroke-linejoin="round"/>
<path d="M376.79 231.935C378.67 228.358 382.406 225.264 387.915 223.166C402.592 217.576 424.291 221.17 436.381 231.194C440.919 234.957 443.459 239.09 444.084 243.082C447.212 237.129 445.195 229.84 437.643 223.579C425.553 213.555 403.853 209.96 389.177 215.55C380.009 219.042 375.749 225.292 376.79 231.935Z" fill="#151515" stroke="#151515" stroke-width="2" stroke-linejoin="round"/>
<path d="M376.794 231.937C378.674 228.36 382.41 225.266 387.919 223.168C400.209 218.487 417.422 220.246 429.795 226.827L431.056 219.212C418.684 212.63 401.47 210.871 389.18 215.552C380.012 219.044 375.753 225.294 376.794 231.937Z" fill="#75DCC0" stroke="#151515" stroke-width="2" stroke-linejoin="round"/>
<ellipse cx="89.5647" cy="190.565" rx="22.5647" ry="22.5647" fill="#8E44EC" stroke="#151515" stroke-width="2" stroke-linejoin="round"/>
<path d="M89.5647 213.129C102.027 213.129 112.129 203.027 112.129 190.565C112.129 189.902 112.101 189.246 112.045 188.597C111.048 198.158 101.364 205.661 89.5647 205.661C77.7654 205.661 68.0813 198.158 67.0846 188.597C67.0286 189.246 67 189.902 67 190.565C67 203.027 77.1026 213.129 89.5647 213.129Z" fill="#151515"/>
<path d="M81.1984 169.602C83.7855 168.746 86.6087 168.275 89.5647 168.275C92.5207 168.275 95.3439 168.746 97.9311 169.602C95.3439 168.568 92.5207 168 89.5647 168C86.6087 168 83.7855 168.568 81.1984 169.602Z" fill="#151515"/>
<path d="M89.5647 213.129C102.027 213.129 112.129 203.027 112.129 190.565C112.129 189.902 112.101 189.246 112.045 188.597C111.048 198.158 101.364 205.661 89.5647 205.661C77.7654 205.661 68.0813 198.158 67.0846 188.597C67.0286 189.246 67 189.902 67 190.565C67 203.027 77.1026 213.129 89.5647 213.129Z" stroke="#151515" stroke-width="2"/>
<path d="M81.1984 169.602C83.7855 168.746 86.6087 168.275 89.5647 168.275C92.5207 168.275 95.3439 168.746 97.9311 169.602C95.3439 168.568 92.5207 168 89.5647 168C86.6087 168 83.7855 168.568 81.1984 169.602Z" stroke="#151515" stroke-width="2"/>
</g>
<defs>
<clipPath id="clip0_9303_1127">
<rect width="516" height="290" fill="white" transform="translate(0.5)"/>
</clipPath>
</defs>
</svg>
